<?xml version="1.0" encoding="UTF-8"?>
<svg width="12px" height="8px" viewBox="0 0 12 8" version="1.1" xmlns="http://www.w3.org/2000/svg" xmlns:xlink="http://www.w3.org/1999/xlink">
    <title>arrow-down</title>
    <g id="Page-1" stroke="none" stroke-width="1" fill="none" fill-rule="evenodd">
        <g id="balance-checker-main-copy" transform="translate(-322.000000, -258.000000)" fill="#855DCD">
            <path d="M323.256645,258.000143 C323.586176,257.996876 323.904458,258.139856 324.147038,258.40013 L328.00341,262.646992 L331.852925,258.40513 C332.355278,257.864957 333.128789,257.864957 333.631141,258.40513 C333.86622,258.657356 334,259.012957 334,259.385598 C334,259.758239 333.86622,260.11384 333.631141,260.366066 L328.887804,265.592897 C328.386994,266.135701 327.612113,266.135701 327.111302,265.592897 L322.369679,260.366066 C322.134121,260.114155 322,259.758437 322,259.385598 C322,259.012759 322.134121,258.65704 322.369679,258.40513 C322.610458,258.143464 322.927617,257.998649 323.256645,258.000143" id="arrow-down"></path>
        </g>
    </g>
</svg>